<?xml version="1.0" encoding="UTF-8" standalone="no"?>
<svg
   xmlns:dc="http://purl.org/dc/elements/1.1/"
   xmlns:cc="http://creativecommons.org/ns#"
   xmlns:rdf="http://www.w3.org/1999/02/22-rdf-syntax-ns#"
   xmlns:svg="http://www.w3.org/2000/svg"
   xmlns="http://www.w3.org/2000/svg"
   xmlns:sodipodi="http://sodipodi.sourceforge.net/DTD/sodipodi-0.dtd"
   xmlns:inkscape="http://www.inkscape.org/namespaces/inkscape"
   version="1.1"
   id="svg2"
   xml:space="preserve"
   width="489.60001"
   height="247.02667"
   viewBox="0 0 489.60001 247.02667"
   sodipodi:docname="FLipPad_logo.svg"
   inkscape:version="1.0.1 (3bc2e813f5, 2020-09-07)"><metadata
     id="metadata8"><rdf:RDF><cc:Work
         rdf:about=""><dc:format>image/svg+xml</dc:format><dc:type
           rdf:resource="http://purl.org/dc/dcmitype/StillImage" /><dc:title></dc:title></cc:Work></rdf:RDF></metadata><defs
     id="defs6" /><sodipodi:namedview
     pagecolor="#ffffff"
     bordercolor="#666666"
     borderopacity="1"
     objecttolerance="10"
     gridtolerance="10"
     guidetolerance="10"
     inkscape:pageopacity="0"
     inkscape:pageshadow="2"
     inkscape:window-width="1920"
     inkscape:window-height="1017"
     id="namedview4"
     inkscape:document-rotation="0"
     showgrid="false"
     inkscape:zoom="2.1425653"
     inkscape:cx="253.45611"
     inkscape:cy="189.32952"
     inkscape:window-x="1912"
     inkscape:window-y="-8"
     inkscape:window-maximized="1"
     inkscape:current-layer="text849" /><g
     id="g10"
     inkscape:groupmode="layer"
     inkscape:label="ink_ext_XXXXXX"
     transform="matrix(1.3333333,0,0,-1.3333333,0,247.02667)"><path
       d="M 91.0633,100.082 H 215.303 c -1.798,3.5 -3.746,11.999 -3.746,11.999 0,-0.5 -120.6433,0 -120.6433,0 l 0.1496,-11.999"
       style="fill:#000080;fill-opacity:1;fill-rule:nonzero;stroke:none;stroke-width:0.1"
       id="path14" /><path
       d="M 0.39680754,72.332721 H 226.60276 c -3.275,3.4988 -26.47776,11.822379 -26.47776,11.822379 0,-0.5 -200.00123946,0.175221 -200.00123946,0.175221 l 0.273047,-11.9976"
       style="fill:#dedede;fill-opacity:1;fill-rule:nonzero;stroke:none;stroke-width:0.1"
       id="path16"
       sodipodi:nodetypes="ccccc" /><path
       d="m 200.125,100.154 c 16.844,0 154.328,0 167.075,0 0,0 -47.801,75.115 -103.341,73.294 -55.539,-1.821 -63.734,-73.294 -63.734,-73.294"
       style="fill:#000080;fill-opacity:1;fill-rule:nonzero;stroke:none;stroke-width:0.1"
       id="path28" /><path
       d="m 200.125,84.1551 c 16.844,0 154.328,0 167.075,0 0,0 -47.801,-75.11526 -103.341,-73.2942 -55.539,1.8211 -63.734,73.2942 -63.734,73.2942"
       style="fill:#dedede;fill-opacity:1;fill-rule:nonzero;stroke:none;stroke-width:0.1"
       id="path30" /><path
       d="m 295.0972,48.269167 c 0,14.918 -11.945,27.0109 -26.68,27.0109 -14.734,0 -26.679,-12.0929 -26.679,-27.0109 0,-14.918 11.945,-27.0121 26.679,-27.0121 14.735,0 26.68,12.0941 26.68,27.0121"
       style="fill:#000080;fill-opacity:1;fill-rule:nonzero;stroke:none;stroke-width:0.1"
       id="path32" /><path
       d="m 295.0972,135.95735 c 0,14.918 -11.945,27.011 -26.68,27.011 -14.734,0 -26.679,-12.093 -26.679,-27.011 0,-14.919 11.945,-27.012 26.679,-27.012 14.735,0 26.68,12.093 26.68,27.012"
       style="fill:#dedede;fill-opacity:1;fill-rule:nonzero;stroke:none;stroke-width:0.1"
       id="path34" /><path
       d="m 101.62,158.045 v -9.816 h 16.325 v -5.816 H 101.62 v -14.964 h -6.9087 v 36.411 h 24.1137 v -5.815 H 101.62"
       style="fill:#000080;fill-opacity:1;fill-rule:nonzero;stroke:none;stroke-width:0.1"
       id="path40" /><path
       d="m 132.57,163.86 v -30.222 h 17.072 v -6.189 h -23.98 v 36.411 h 6.908"
       style="fill:#000080;fill-opacity:1;fill-rule:nonzero;stroke:none;stroke-width:0.1"
       id="path42" /><path
       d="m 161.68,152.95 v -25.501 h -6.108 v 25.501 z m 0,10.91 v -5.095 h -6.108 v 5.095 h 6.108"
       style="fill:#000080;fill-opacity:1;fill-rule:nonzero;stroke:none;stroke-width:0.1"
       id="path44" /><path
       d="m 182.334,148.442 c -2.33,0 -3.85,-0.525 -4.561,-1.574 -0.711,-1.05 -1.067,-3.272 -1.067,-6.669 0,-3.307 0.383,-5.504 1.147,-6.588 0.764,-1.085 2.321,-1.627 4.668,-1.627 2.383,0 3.93,0.515 4.641,1.547 0.711,1.031 1.067,3.245 1.067,6.642 0,3.485 -0.36,5.735 -1.08,6.748 -0.72,1.014 -2.325,1.521 -4.815,1.521 z m -12.03,4.508 h 6.215 l -0.24,-3.788 0.133,-0.026 c 1.477,2.755 4.224,4.134 8.243,4.134 3.717,0 6.272,-0.92 7.669,-2.761 1.396,-1.84 2.094,-5.197 2.094,-10.07 0,-5.086 -0.694,-8.571 -2.081,-10.456 -1.387,-1.885 -3.957,-2.828 -7.709,-2.828 -4.001,0 -6.615,1.334 -7.842,4.002 h -0.107 v -14.644 h -6.375 v 36.437"
       style="fill:#000080;fill-opacity:1;fill-rule:nonzero;stroke:none;stroke-width:0.1"
       id="path46" /><g
       aria-label="Pad"
       transform="scale(-1,1)"
       id="text849"
       style="font-style:normal;font-weight:normal;font-size:50.4965px;line-height:1.25;font-family:sans-serif;letter-spacing:0px;word-spacing:0px;fill:#000080;fill-opacity:1;stroke:none;stroke-width:1.26241"><path
         d="M -187.06954,61.233135 V 25.086716 h 11.71183 q 6.65725,0 8.67908,0.542443 3.10672,0.813664 5.20253,3.550535 2.0958,2.712214 2.0958,7.027101 0,3.328626 -1.20817,5.597024 -1.20817,2.268397 -3.08206,3.575191 -1.84924,1.282138 -3.77245,1.701298 -2.61358,0.517786 -7.56954,0.517786 h -4.7587 v 13.635041 z m 7.29832,-30.031609 v 10.257102 h 3.99435 q 4.31489,0 5.76962,-0.5671 1.45473,-0.567099 2.2684,-1.775267 0.83832,-1.208168 0.83832,-2.81084 0,-1.97252 -1.15886,-3.254658 -1.15885,-1.282137 -2.93412,-1.602672 -1.3068,-0.246565 -5.25183,-0.246565 z"
         style="font-style:normal;font-variant:normal;font-weight:bold;font-stretch:normal;font-family:Arial;-inkscape-font-specification:'Arial Bold';fill:#000080;stroke-width:1.26241"
         id="path842" /><path
         d="m -148.26022,43.036643 -6.28741,-1.134198 q 1.06023,-3.7971 3.64916,-5.621681 2.58893,-1.82458 7.69283,-1.82458 4.63542,0 6.90382,1.109542 2.26839,1.084885 3.18068,2.786184 0.93695,1.676641 0.93695,6.188779 l -0.074,8.08733 q 0,3.451909 0.32054,5.103894 0.34519,1.627329 1.25748,3.501222 h -6.85451 q -0.27122,-0.690382 -0.66572,-2.046489 -0.1726,-0.616412 -0.24657,-0.813664 -1.77527,1.725955 -3.7971,2.588932 -2.02183,0.862977 -4.31489,0.862977 -4.04366,0 -6.38603,-2.194428 -2.31771,-2.194428 -2.31771,-5.547711 0,-2.219084 1.06023,-3.945039 1.06023,-1.750611 2.95878,-2.662901 1.92321,-0.936947 5.52306,-1.627329 4.85732,-0.91229 6.73122,-1.701298 v -0.690381 q 0,-1.997176 -0.98626,-2.835497 -0.98626,-0.862977 -3.72313,-0.862977 -1.84924,0 -2.88481,0.739694 -1.03557,0.715039 -1.67664,2.539619 z m 9.27084,5.621681 q -1.33145,0.443817 -4.21626,1.060229 -2.88481,0.616412 -3.77245,1.208168 -1.3561,0.961603 -1.3561,2.440993 0,1.454733 1.08488,2.514962 1.08489,1.060229 2.76153,1.060229 1.87389,0 3.57519,-1.232824 1.25748,-0.936947 1.65199,-2.293054 0.27122,-0.887634 0.27122,-3.37794 z"
         style="font-style:normal;font-variant:normal;font-weight:bold;font-stretch:normal;font-family:Arial;-inkscape-font-specification:'Arial Bold';fill:#000080;stroke-width:1.26241"
         id="path844" /><path
         d="m -101.33891,61.233135 h -6.43535 v -3.846413 q -1.60267,2.243741 -3.7971,3.353283 -2.16977,1.084886 -4.38886,1.084886 -4.51213,0 -7.74213,-3.624504 -3.20535,-3.649161 -3.20535,-10.158476 0,-6.657253 3.13138,-10.109162 3.13137,-3.476565 7.91473,-3.476565 4.38886,0 7.5942,3.649161 V 25.086716 h 6.92848 z m -18.49237,-13.659697 q 0,4.191604 1.15885,6.065497 1.67664,2.712215 4.68473,2.712215 2.39168,0 4.06833,-2.021833 1.67664,-2.046489 1.67664,-6.090154 0,-4.512138 -1.62733,-6.484657 -1.62733,-1.997176 -4.16695,-1.997176 -2.46565,0 -4.14229,1.972519 -1.65198,1.947863 -1.65198,5.843589 z"
         style="font-style:normal;font-variant:normal;font-weight:bold;font-stretch:normal;font-family:Arial;-inkscape-font-specification:'Arial Bold';fill:#000080;stroke-width:1.26241"
         id="path846" /></g></g></svg>
